<svg width="445" height="302" viewBox="0 0 445 302" xmlns="http://www.w3.org/2000/svg"><defs><filter id="mood-art-export" x="-25%" y="-50%" width="150%" height="200%" color-interpolation-filters="sRGB"><feGaussianBlur in="SourceAlpha" stdDeviation="2.4" result="softAlpha"></feGaussianBlur><feOffset in="softAlpha" dx="2" dy="2" result="lowerAlpha"></feOffset><feComposite in="SourceAlpha" in2="lowerAlpha" operator="out" result="lightEdge"></feComposite><feFlood flood-color="#ffffff" flood-opacity="0.3"></feFlood><feComposite in2="lightEdge" operator="in" result="innerLight"></feComposite><feOffset in="softAlpha" dx="-2" dy="-2" result="upperAlpha"></feOffset><feComposite in="SourceAlpha" in2="upperAlpha" operator="out" result="darkEdge"></feComposite><feFlood flood-color="#000000" flood-opacity="0.32"></feFlood><feComposite in2="darkEdge" operator="in" result="innerDark"></feComposite><feMerge><feMergeNode in="SourceGraphic"></feMergeNode><feMergeNode in="innerLight"></feMergeNode><feMergeNode in="innerDark"></feMergeNode></feMerge></filter></defs><g><path d="M118.708 124.571C119.15 119.825 119.957 116.107 121.176 111.592C129.81 79.6416 145.868 71.7068 173.432 90.4295C190.402 98.7102 201.101 129.556 203.194 147.011C175.621 145.772 155.578 148.241 128.533 153.61C124.442 155.138 120.542 155.801 116.288 156.675C115.808 149.067 116.115 131.381 118.708 124.571Z" fill="#28645b" filter="url(&quot;#mood-art-export&quot;)"></path><path d="M118.708 124.571C119.15 119.825 119.957 116.107 121.176 111.592C129.81 79.6416 145.868 71.7068 173.432 90.4295C171.607 90.833 171.665 91.275 170.07 90.4872C124.835 68.0084 125.863 119.46 118.708 124.571Z" fill="#63a89b" filter="url(&quot;#mood-art-export&quot;)"></path><path d="M128.533 153.611L129.609 152.103C140.019 147.185 195.415 140.989 203.194 147.012C175.621 145.773 155.578 148.241 128.533 153.611Z" fill="#63a89b" filter="url(&quot;#mood-art-export&quot;)"></path><path d="M167.035 82.6201C206.921 91.8518 222.671 115.983 230.009 154.456C236.866 157.377 261.875 167.175 265.592 174.61C266.062 175.542 265.188 176.128 264.362 177.262C258.878 179.711 244.953 179.058 238.432 179.029C208.438 178.885 178.061 178.366 148.826 170.864C144.188 169.673 119.659 163.746 117.901 160.287C120.811 158.99 121.042 159.058 124.298 158.923C144.139 153.947 206.546 145.138 224.342 153.861C227.051 153.294 226.004 153.957 227.752 152.141C224.487 148.75 211.713 147.636 206.431 146.819C205.893 145.955 203.339 136.137 202.801 134.254C197.73 116.319 193.859 109.307 183.016 94.8106C177.043 89.5656 173.96 86.6932 167.035 82.6201Z" fill="#28645b" filter="url(&quot;#mood-art-export&quot;)"></path><path d="M167.035 82.6201C206.921 91.8518 222.671 115.983 230.009 154.456C236.866 157.377 261.875 167.175 265.592 174.61C266.062 175.542 265.188 176.128 264.362 177.262C258.878 179.711 244.953 179.058 238.432 179.029C208.438 178.885 178.061 178.366 148.826 170.864C144.188 169.673 119.659 163.746 117.901 160.287C120.811 158.99 121.042 159.058 124.298 158.923C163.962 173.88 217.351 177.819 259.628 173.323C254.97 171.056 226.206 156.061 224.342 153.861C227.051 153.294 226.004 153.957 227.752 152.141C224.487 148.75 211.713 147.636 206.431 146.819C205.893 145.955 203.339 136.137 202.801 134.254C197.73 116.319 193.859 109.307 183.016 94.8106C177.043 89.5656 173.96 86.6932 167.035 82.6201Z" fill="#63a89b" filter="url(&quot;#mood-art-export&quot;)"></path><path d="M183.016 94.8103L180.906 92.9756C180.906 92.9756 183.298 93.0963 184.812 93.3213C197.635 95.226 206.45 107.654 210.791 113.985C219.176 126.213 221.24 134.379 224.592 147.981C220.28 147.213 209.975 144.84 206.431 146.819C205.893 145.954 203.339 136.137 202.801 134.254C197.73 116.319 193.859 109.306 183.016 94.8103Z" fill="#28645b" filter="url(&quot;#mood-art-export&quot;)"></path><path d="M62.736 168.05C63.6964 128.443 84.8252 86.0215 128.792 83.8505C129.071 83.7832 129.349 83.7064 129.618 83.6392C129.474 85.0129 127.044 88.0772 126.094 89.4605C123.894 92.7459 118.881 102.179 118.468 105.984C116.624 112.497 114.938 117.858 113.32 125.619C110.904 137.209 109.406 155.683 109.406 155.683C100.302 159.331 88.7571 158.09 75.9415 161.518C72.5969 162.412 71.1054 162.828 67.4324 164.006C67.4324 164.006 65.4055 164.332 65.4059 165.792C65.4064 167.253 67.7589 167.253 67.7589 167.253C67.7589 167.253 89.9153 163.218 96.3788 162.978L97.9058 162.469C101.363 161.796 103.255 161.191 106.751 161.979C104.955 164.044 106.031 163.189 103.14 164.236C90.8181 170 45.0071 189.338 38.3035 197.321L38.0922 198.944C41.6553 202.076 51.1728 202.777 56.1477 203.401C58.395 203.267 61.5643 202.777 63.4851 203.68C56.4166 205.303 51.7779 205.524 44.5653 204.468C14.1495 198.089 52.1428 174.64 62.736 168.05Z" fill="#28645b" filter="url(&quot;#mood-art-export&quot;)"></path><path d="M62.736 168.05C63.6964 128.443 84.8252 86.0212 128.792 83.8502C128.87 83.8315 117.215 87.3727 114.3 88.8262C108.424 91.7555 90.5544 98.6047 82.6354 111.622C74.489 125.014 67.7492 149.02 67.7492 149.02C67.7492 149.02 67.2211 158.28 67.4324 164.005C67.4324 164.005 65.4055 164.332 65.4059 165.792C65.4064 167.252 67.7589 167.252 67.7589 167.252C67.7589 167.252 89.9153 163.218 96.3788 162.978L97.9058 162.468C101.363 161.796 103.255 161.191 106.751 161.978C104.955 164.044 106.031 163.189 103.14 164.236C90.8181 170 45.0071 189.337 38.3035 197.32L38.0922 198.944C41.6553 202.075 51.1728 202.777 56.1477 203.401C58.395 203.267 61.5643 202.777 63.4851 203.68C56.4166 205.303 51.7779 205.524 44.5653 204.467C14.1495 198.089 52.1428 174.64 62.736 168.05Z" fill="#63a89b" filter="url(&quot;#mood-art-export&quot;)"></path><path d="M67.7589 167.252C73.214 164.399 89.9154 163.218 96.3789 162.978C78.3138 170.836 59.5572 180.269 41.6746 187.579C43.9795 185.754 67.5188 167.886 67.7589 167.252Z" fill="#28645b" filter="url(&quot;#mood-art-export&quot;)"></path><path d="M56.1477 203.401C58.3951 203.266 61.5644 202.776 63.4852 203.679C56.4167 205.303 51.778 205.524 44.5654 204.467L56.1477 203.401Z" fill="#28645b" filter="url(&quot;#mood-art-export&quot;)"></path><path d="M97.9059 162.468C101.363 161.796 103.255 161.19 106.751 161.978C104.955 164.043 106.031 163.188 103.14 164.235C101.45 163.361 99.7595 163.006 97.9059 162.468Z" fill="#63a89b" filter="url(&quot;#mood-art-export&quot;)"></path><path d="M308.79 173.323C313.026 176.416 315.629 178.155 320.171 180.739C318.116 184.313 315.686 189.107 312.853 191.893C310.145 189.789 304.786 186.648 301.539 184.419C304.411 180.442 306.284 177.55 308.79 173.323Z" fill="#63a89b" filter="url(&quot;#mood-art-export&quot;)"></path><path fill-rule="evenodd" clip-rule="evenodd" d="M337.689 53.7334C373.012 48.3923 405.944 72.8022 411.121 108.153C416.307 143.505 391.769 176.339 356.407 181.373C321.247 186.378 288.661 162.017 283.513 126.877C278.356 91.7369 302.577 59.0361 337.689 53.7334ZM401.296 112.852C398.674 82.8701 372.1 60.7854 342.145 63.6865C312.584 66.5588 290.86 92.7165 293.453 122.313C296.046 151.901 321.986 173.88 351.595 171.556C381.598 169.212 403.928 142.842 401.296 112.852Z" fill="#63a89b" filter="url(&quot;#mood-art-export&quot;)"></path><path d="M342.568 82.3996C355.984 81.6118 371.332 87.1066 370.467 103.87C369.833 116.118 360.431 119.298 352.882 126.358C350.981 128.135 352.047 132.372 348.013 135.676C344.969 136.099 341.213 135.763 339.562 133.015C339.389 128.52 339.888 127.175 340.993 122.852C345.17 116.099 360.748 108.116 357.406 97.3662C350.75 89.5754 339.686 94.177 336.085 103.341C335.48 104.888 328.411 104.158 326.03 100.114C326.154 91.4967 335.048 84.83 342.568 82.3996Z" fill="#63a89b" filter="url(&quot;#mood-art-export&quot;)"></path><path d="M343.269 141.152C346.822 139.932 350.693 141.824 351.922 145.369C353.151 148.923 351.278 152.804 347.735 154.043C344.172 155.292 340.272 153.4 339.033 149.836C337.804 146.272 339.696 142.381 343.269 141.152Z" fill="#63a89b" filter="url(&quot;#mood-art-export&quot;)"></path><path d="M297.583 184.495L301.539 184.418C304.786 186.647 310.145 189.788 312.853 191.892L312.411 193.026C313.323 194.044 314.073 195.283 314.831 196.436C315.35 202.536 293.395 234.813 289.4 241.317C279.642 257.225 262.48 244.477 265.304 237.157C269.981 225.005 288.343 193.919 297.583 184.495Z" fill="#63a89b" filter="url(&quot;#mood-art-export&quot;)"></path><path d="M124.547 65.6841C130.607 65.5496 139.606 68.8543 141.133 75.2329C137.446 75.108 132.999 70.1607 126.968 68.9503C124.106 70.6314 123.673 70.862 121.695 73.5133C121.416 77.0388 121.503 75.9149 123.923 79.5941C121.224 81.3905 119.717 81.6498 117.383 79.4788C115.894 72.0531 118.852 69.1424 124.547 65.6841Z" fill="#63a89b" filter="url(&quot;#mood-art-export&quot;)"></path><path d="M157.691 65.8098C158.238 65.781 158.786 65.7617 159.333 65.7617C169.504 65.7425 174.2 75.9733 166.891 80.1137L165.009 79.2683C163.367 75.128 166.565 79.0762 165.297 70.9492C158.104 68.6245 155.837 72.1788 147.03 74.907L146.531 73.8215L147.203 74.9455L146.973 73.3315C151.266 68.8454 152.044 68.4516 157.691 65.8098Z" fill="#63a89b" filter="url(&quot;#mood-art-export&quot;)"></path><path d="M205.696 186.934C207.633 186.953 209.533 187.096 211.384 187.354C204.426 191.869 199.526 202.68 199.526 215.297C199.526 228.274 204.71 239.339 211.985 243.61C209.799 243.946 207.542 244.121 205.235 244.121L204.774 244.12C185.284 243.922 169.562 231.195 169.562 215.526C169.562 199.733 185.533 186.93 205.235 186.93L205.696 186.934Z" fill="#c2e9e1" filter="url(&quot;#mood-art-export&quot;)"></path><path d="M138.463 186.934C140.4 186.953 142.3 187.096 144.151 187.354C137.193 191.869 132.293 202.68 132.293 215.297C132.293 228.274 137.477 239.339 144.752 243.61C142.566 243.946 140.309 244.121 138.002 244.121L137.541 244.12C118.051 243.922 102.329 231.195 102.329 215.526C102.329 199.733 118.3 186.93 138.002 186.93L138.463 186.934Z" fill="#c2e9e1" filter="url(&quot;#mood-art-export&quot;)"></path></g></svg>
