<svg width="800" height="800" viewBox="0 0 800 800" fill="none" xmlns="http://www.w3.org/2000/svg">
<path d="M471.52 534C524.617 534 579.488 569.562 579.488 626.5C579.488 683.438 524.617 719 471.52 719C418.422 719 363.551 683.438 363.551 626.5C363.551 569.562 418.422 534 471.52 534ZM471.52 564C428.459 564 393.551 591.982 393.551 626.5C393.551 660.748 427.915 688.563 470.512 688.995L471.52 689C476.564 689 481.496 688.614 486.273 687.881C470.373 678.544 459.045 654.362 459.045 626C459.045 598.422 469.755 574.794 484.965 564.926C480.918 564.362 476.763 564.048 472.527 564.005L471.52 564Z" fill="black"/>
<path d="M309.969 534C363.066 534 417.938 569.562 417.938 626.5C417.938 683.438 363.066 719 309.969 719C256.871 719 202 683.438 202 626.5C202 569.562 256.871 534 309.969 534ZM309.969 564C266.908 564 232 591.982 232 626.5C232 660.748 266.364 688.563 308.961 688.995L309.969 689C315.013 689 319.945 688.614 324.723 687.881C308.822 678.545 297.493 654.362 297.493 626C297.493 598.422 308.203 574.794 323.413 564.926C319.366 564.362 315.212 564.048 310.977 564.005L309.969 564Z" fill="black"/>
<path fill-rule="evenodd" clip-rule="evenodd" d="M360.654 125.136C399.072 122.003 433.139 123.309 458.022 156.131C562.174 185.381 612.289 267.768 623.932 370.684C646.897 383.726 644.031 400.953 645.941 424.998C734.293 480.788 684.087 500.108 611.254 497.457C601.413 497.099 589.693 497.474 579.708 497.476L435.357 497.377C382.314 497.445 330.467 498.965 277.554 492.573C235.585 487.504 193.692 503.206 150.57 496.648C100.032 488.964 103.553 473.41 112.414 429.969C115.953 412.623 117.675 410.931 132.601 400.733C137.934 289.547 188.067 199.12 294.391 158.199C296.686 154.036 299.286 150.05 302.169 146.271C315.747 128.791 340.37 127.547 360.654 125.136ZM597.051 384.994C594.908 396.086 598.265 416.465 597.944 429.668C496.433 422.394 396.91 421.182 295.701 434.037C285.626 435.317 274.061 436.927 264.057 437.543C261.535 422.354 259.54 407.081 258.078 391.754C221.158 396.747 168.955 405.028 135.84 422.36C132.762 435.935 131.777 444.304 130.339 458.122C145.371 452.968 158.167 448.704 173.506 444.63C236.991 430.386 207.307 452.42 248.194 462.197C329.664 481.683 423.017 470.782 506.642 473.773C552.761 474.53 630.374 475.501 673.489 471.701C658.171 456.451 644.78 448.169 626.5 436.62C625.076 421.966 623.817 405.915 621.792 391.459C613.924 389.102 605.076 386.16 597.051 384.994ZM402.824 147.936C395.416 146.6 378.935 145.92 371.746 146.231C357.43 147.439 346.588 148.495 332.44 150.955C366.566 169.791 376.057 199.073 387.417 234.661C393.395 253.389 408.156 323.355 401.676 339.693L398.727 341.897L393.852 340.915C389.62 333.544 388.092 323.021 386.121 314.611C375.002 267.139 357.563 204.341 315.291 175.246C209.537 204.474 163.722 294.207 154.16 397.271C185.876 387.326 217.782 378.243 251.157 376.224C281.156 374.408 278.133 398.087 280.94 421.214C295.474 419.024 310.039 417.055 324.632 415.304C405.305 408.666 499.457 404.288 580.189 414.612C578.52 392.383 572.43 371.247 601.039 369.549C605.052 361.129 598.721 340.961 596.44 331.576C581.403 269.733 543.188 216.322 485.051 188.42C480.693 186.363 476.274 184.44 471.799 182.651C486.112 215.464 509.099 308.964 500.51 339.252L497.445 341.926C483.753 339.667 488.237 315.739 484.638 303.136C470.796 254.665 459.4 164.073 402.824 147.936Z" fill="black"/>
</svg>
